<svg xmlns="http://www.w3.org/2000/svg" version="1.1" xmlns:xlink="http://www.w3.org/1999/xlink" xmlns:svgjs="http://svgjs.dev/svgjs" width="512" height="512" preserveAspectRatio="none" viewBox="0 0 512 512"><g mask="url(&quot;#SvgjsMask1001&quot;)" fill="none"><rect width="512" height="512" x="0" y="0" fill="rgba(21, 67, 96, 1)"></rect><path d="M0,183.331C38.621,189.885,81.389,199.056,115.06,179.036C148.911,158.908,161.183,116.743,174.388,79.64C186.668,45.135,196.874,8.545,188.419,-27.091C180.294,-61.337,148.034,-82.167,128.977,-111.759C105.835,-147.694,105.624,-208.019,64.469,-219.56C23.155,-231.145,-9.583,-181.597,-47.333,-161.2C-76.2,-145.603,-107.552,-136.412,-131.306,-113.778C-156.845,-89.444,-177.714,-60.753,-188.126,-27.048C-199.743,10.559,-213.024,54.16,-193.792,88.502C-174.595,122.781,-127.722,126.559,-92.432,143.827C-61.714,158.859,-33.717,177.61,0,183.331" fill="#0e2c3e"></path><path d="M512 716.133C549.539 715.097 577.34 682.4639999999999 605.824 657.992 630.853 636.489 652.108 612.224 667.139 582.85 682.736 552.371 695.096 520.063 693.915 485.845 692.6510000000001 449.223 684.672 410.86 660.261 383.531 635.976 356.34299999999996 599.146 341.651 562.785 339.04200000000003 529.691 336.66700000000003 502.644 362.60900000000004 470.275 369.897 434.71299999999997 377.904 392.144 360.578 364.038 383.78999999999996 335.81600000000003 407.098 327.76300000000003 449.28 329.914 485.82 331.904 519.632 360.64599999999996 543.891 375.26099999999997 574.447 389.533 604.2860000000001 391.818 639.467 414.78700000000003 663.267 440.932 690.358 474.365 717.172 512 716.133" fill="#1c5a82"></path></g><defs><mask id="SvgjsMask1001"><rect width="512" height="512" fill="#ffffff"></rect></mask></defs></svg>