<svg id="visual" viewBox="0 0 540 960" width="540" height="960" xmlns="http://www.w3.org/2000/svg" xmlns:xlink="http://www.w3.org/1999/xlink" version="1.1"><rect x="0" y="0" width="540" height="960" fill="#001220"></rect><defs><linearGradient id="grad1_0" x1="0%" y1="0%" x2="100%" y2="100%"><stop offset="30%" stop-color="#fbae3c" stop-opacity="1"></stop><stop offset="70%" stop-color="#fbae3c" stop-opacity="1"></stop></linearGradient></defs><defs><linearGradient id="grad1_1" x1="0%" y1="0%" x2="100%" y2="100%"><stop offset="30%" stop-color="#fbae3c" stop-opacity="1"></stop><stop offset="70%" stop-color="#f48350" stop-opacity="1"></stop></linearGradient></defs><defs><linearGradient id="grad1_2" x1="0%" y1="0%" x2="100%" y2="100%"><stop offset="30%" stop-color="#d96162" stop-opacity="1"></stop><stop offset="70%" stop-color="#f48350" stop-opacity="1"></stop></linearGradient></defs><defs><linearGradient id="grad1_3" x1="0%" y1="0%" x2="100%" y2="100%"><stop offset="30%" stop-color="#d96162" stop-opacity="1"></stop><stop offset="70%" stop-color="#af4b6d" stop-opacity="1"></stop></linearGradient></defs><defs><linearGradient id="grad1_4" x1="0%" y1="0%" x2="100%" y2="100%"><stop offset="30%" stop-color="#7c3e6b" stop-opacity="1"></stop><stop offset="70%" stop-color="#af4b6d" stop-opacity="1"></stop></linearGradient></defs><defs><linearGradient id="grad1_5" x1="0%" y1="0%" x2="100%" y2="100%"><stop offset="30%" stop-color="#7c3e6b" stop-opacity="1"></stop><stop offset="70%" stop-color="#49335c" stop-opacity="1"></stop></linearGradient></defs><defs><linearGradient id="grad1_6" x1="0%" y1="0%" x2="100%" y2="100%"><stop offset="30%" stop-color="#1d2540" stop-opacity="1"></stop><stop offset="70%" stop-color="#49335c" stop-opacity="1"></stop></linearGradient></defs><defs><linearGradient id="grad1_7" x1="0%" y1="0%" x2="100%" y2="100%"><stop offset="30%" stop-color="#1d2540" stop-opacity="1"></stop><stop offset="70%" stop-color="#001220" stop-opacity="1"></stop></linearGradient></defs><defs><linearGradient id="grad2_0" x1="0%" y1="0%" x2="100%" y2="100%"><stop offset="30%" stop-color="#fbae3c" stop-opacity="1"></stop><stop offset="70%" stop-color="#fbae3c" stop-opacity="1"></stop></linearGradient></defs><defs><linearGradient id="grad2_1" x1="0%" y1="0%" x2="100%" y2="100%"><stop offset="30%" stop-color="#f48350" stop-opacity="1"></stop><stop offset="70%" stop-color="#fbae3c" stop-opacity="1"></stop></linearGradient></defs><defs><linearGradient id="grad2_2" x1="0%" y1="0%" x2="100%" y2="100%"><stop offset="30%" stop-color="#f48350" stop-opacity="1"></stop><stop offset="70%" stop-color="#d96162" stop-opacity="1"></stop></linearGradient></defs><defs><linearGradient id="grad2_3" x1="0%" y1="0%" x2="100%" y2="100%"><stop offset="30%" stop-color="#af4b6d" stop-opacity="1"></stop><stop offset="70%" stop-color="#d96162" stop-opacity="1"></stop></linearGradient></defs><defs><linearGradient id="grad2_4" x1="0%" y1="0%" x2="100%" y2="100%"><stop offset="30%" stop-color="#af4b6d" stop-opacity="1"></stop><stop offset="70%" stop-color="#7c3e6b" stop-opacity="1"></stop></linearGradient></defs><defs><linearGradient id="grad2_5" x1="0%" y1="0%" x2="100%" y2="100%"><stop offset="30%" stop-color="#49335c" stop-opacity="1"></stop><stop offset="70%" stop-color="#7c3e6b" stop-opacity="1"></stop></linearGradient></defs><defs><linearGradient id="grad2_6" x1="0%" y1="0%" x2="100%" y2="100%"><stop offset="30%" stop-color="#49335c" stop-opacity="1"></stop><stop offset="70%" stop-color="#1d2540" stop-opacity="1"></stop></linearGradient></defs><defs><linearGradient id="grad2_7" x1="0%" y1="0%" x2="100%" y2="100%"><stop offset="30%" stop-color="#001220" stop-opacity="1"></stop><stop offset="70%" stop-color="#1d2540" stop-opacity="1"></stop></linearGradient></defs><g transform="translate(540, 0)"><path d="M0 324C-50.3 305.1 -100.6 286.2 -151 261.5C-201.4 236.9 -251.8 206.5 -280.6 162C-309.4 117.5 -316.7 58.7 -324 0L0 0Z" fill="#0c1c30"></path><path d="M0 283.5C-44 267 -88.1 250.4 -132.1 228.8C-176.2 207.3 -220.3 180.7 -245.5 141.8C-270.8 102.8 -277.1 51.4 -283.5 0L0 0Z" fill="#312c4f"></path><path d="M0 243C-37.7 228.8 -75.5 214.6 -113.2 196.2C-151 177.7 -188.8 154.9 -210.4 121.5C-232.1 88.1 -237.5 44 -243 0L0 0Z" fill="#623965"></path><path d="M0 202.5C-31.5 190.7 -62.9 178.9 -94.4 163.5C-125.8 148.1 -157.3 129.1 -175.4 101.3C-193.4 73.4 -197.9 36.7 -202.5 0L0 0Z" fill="#96446e"></path><path d="M0 162C-25.2 152.5 -50.3 143.1 -75.5 130.8C-100.7 118.5 -125.9 103.3 -140.3 81C-154.7 58.7 -158.4 29.4 -162 0L0 0Z" fill="#c55469"></path><path d="M0 121.5C-18.9 114.4 -37.7 107.3 -56.6 98.1C-75.5 88.8 -94.4 77.5 -105.2 60.8C-116 44 -118.8 22 -121.5 0L0 0Z" fill="#e9705a"></path><path d="M0 81C-12.6 76.3 -25.2 71.5 -37.7 65.4C-50.3 59.2 -62.9 51.6 -70.1 40.5C-77.4 29.4 -79.2 14.7 -81 0L0 0Z" fill="#fa9845"></path><path d="M0 40.5C-6.3 38.1 -12.6 35.8 -18.9 32.7C-25.2 29.6 -31.5 25.8 -35.1 20.3C-38.7 14.7 -39.6 7.3 -40.5 0L0 0Z" fill="#fbae3c"></path></g><g transform="translate(0, 960)"><path d="M0 -324C57.8 -316.2 115.6 -308.4 162 -280.6C208.4 -252.8 243.4 -205.1 268.5 -155C293.6 -104.9 308.8 -52.5 324 0L0 0Z" fill="#0c1c30"></path><path d="M0 -283.5C50.6 -276.7 101.2 -269.8 141.7 -245.5C182.3 -221.2 212.9 -179.5 234.9 -135.6C256.9 -91.8 270.2 -45.9 283.5 0L0 0Z" fill="#312c4f"></path><path d="M0 -243C43.4 -237.1 86.7 -231.3 121.5 -210.4C156.3 -189.6 182.5 -153.8 201.4 -116.3C220.2 -78.7 231.6 -39.3 243 0L0 0Z" fill="#623965"></path><path d="M0 -202.5C36.1 -197.6 72.3 -192.7 101.2 -175.4C130.2 -158 152.1 -128.2 167.8 -96.9C183.5 -65.6 193 -32.8 202.5 0L0 0Z" fill="#96446e"></path><path d="M0 -162C28.9 -158.1 57.8 -154.2 81 -140.3C104.2 -126.4 121.7 -102.5 134.2 -77.5C146.8 -52.5 154.4 -26.2 162 0L0 0Z" fill="#c55469"></path><path d="M0 -121.5C21.7 -118.6 43.4 -115.6 60.7 -105.2C78.1 -94.8 91.3 -76.9 100.7 -58.1C110.1 -39.3 115.8 -19.7 121.5 0L0 0Z" fill="#e9705a"></path><path d="M0 -81C14.5 -79 28.9 -77.1 40.5 -70.1C52.1 -63.2 60.8 -51.3 67.1 -38.8C73.4 -26.2 77.2 -13.1 81 0L0 0Z" fill="#fa9845"></path><path d="M0 -40.5C7.2 -39.5 14.5 -38.5 20.2 -35.1C26 -31.6 30.4 -25.6 33.6 -19.4C36.7 -13.1 38.6 -6.6 40.5 0L0 0Z" fill="#fbae3c"></path></g></svg>