<svg id="visual" viewBox="0 0 675 900" width="675" height="900" xmlns="http://www.w3.org/2000/svg" xmlns:xlink="http://www.w3.org/1999/xlink" version="1.1"><path d="M0 599L16 590.8C32 582.7 64 566.3 96.2 556.8C128.3 547.3 160.7 544.7 192.8 536.8C225 529 257 516 289.2 544.7C321.3 573.3 353.7 643.7 385.8 644.5C418 645.3 450 576.7 482.2 584.5C514.3 592.3 546.7 676.7 578.8 675.3C611 674 643 587 659 543.5L675 500L675 0L659 0C643 0 611 0 578.8 0C546.7 0 514.3 0 482.2 0C450 0 418 0 385.8 0C353.7 0 321.3 0 289.2 0C257 0 225 0 192.8 0C160.7 0 128.3 0 96.2 0C64 0 32 0 16 0L0 0Z" fill="#8c8474"></path><path d="M0 584L16 578.5C32 573 64 562 96.2 563.2C128.3 564.3 160.7 577.7 192.8 574.3C225 571 257 551 289.2 534C321.3 517 353.7 503 385.8 499.8C418 496.7 450 504.3 482.2 490C514.3 475.7 546.7 439.3 578.8 450.8C611 462.3 643 521.7 659 551.3L675 581L675 0L659 0C643 0 611 0 578.8 0C546.7 0 514.3 0 482.2 0C450 0 418 0 385.8 0C353.7 0 321.3 0 289.2 0C257 0 225 0 192.8 0C160.7 0 128.3 0 96.2 0C64 0 32 0 16 0L0 0Z" fill="#9c8a75"></path><path d="M0 438L16 421.2C32 404.3 64 370.7 96.2 356.7C128.3 342.7 160.7 348.3 192.8 351.3C225 354.3 257 354.7 289.2 370.7C321.3 386.7 353.7 418.3 385.8 424C418 429.7 450 409.3 482.2 401.7C514.3 394 546.7 399 578.8 412C611 425 643 446 659 456.5L675 467L675 0L659 0C643 0 611 0 578.8 0C546.7 0 514.3 0 482.2 0C450 0 418 0 385.8 0C353.7 0 321.3 0 289.2 0C257 0 225 0 192.8 0C160.7 0 128.3 0 96.2 0C64 0 32 0 16 0L0 0Z" fill="#ae8f77"></path><path d="M0 336L16 315.3C32 294.7 64 253.3 96.2 250C128.3 246.7 160.7 281.3 192.8 295.7C225 310 257 304 289.2 309.8C321.3 315.7 353.7 333.3 385.8 336.3C418 339.3 450 327.7 482.2 300.5C514.3 273.3 546.7 230.7 578.8 217.7C611 204.7 643 221.3 659 229.7L675 238L675 0L659 0C643 0 611 0 578.8 0C546.7 0 514.3 0 482.2 0C450 0 418 0 385.8 0C353.7 0 321.3 0 289.2 0C257 0 225 0 192.8 0C160.7 0 128.3 0 96.2 0C64 0 32 0 16 0L0 0Z" fill="#c1937d"></path><path d="M0 175L16 182.8C32 190.7 64 206.3 96.2 203.2C128.3 200 160.7 178 192.8 167.2C225 156.3 257 156.7 289.2 154.8C321.3 153 353.7 149 385.8 141C418 133 450 121 482.2 111.2C514.3 101.3 546.7 93.7 578.8 101.2C611 108.7 643 131.3 659 142.7L675 154L675 0L659 0C643 0 611 0 578.8 0C546.7 0 514.3 0 482.2 0C450 0 418 0 385.8 0C353.7 0 321.3 0 289.2 0C257 0 225 0 192.8 0C160.7 0 128.3 0 96.2 0C64 0 32 0 16 0L0 0Z" fill="#d49686"></path></svg>