<svg xmlns="http://www.w3.org/2000/svg" version="1.1" xmlns:xlink="http://www.w3.org/1999/xlink" xmlns:svgjs="http://svgjs.dev/svgjs" width="700" height="700" preserveAspectRatio="none" viewBox="0 0 700 700"><g mask="url(&quot;#SvgjsMask1525&quot;)" fill="none"><rect width="700" height="700" x="0" y="0" fill="url(&quot;#SvgjsLinearGradient1526&quot;)"></rect><path d="M 542,-122.96198710932697 C 477.6,-52.96 222.2,87.04 220,227.03801289067303 C 217.8,367.04 560.8,437.04 531,577.038012890673 C 501.2,717.04 64.4,902.45 71,927.038012890673 C 77.6,951.63 465.4,745.41 564,700" stroke="rgba(255, 183, 3, 1)" stroke-width="2"></path><path d="M 231,-584.014104055397 C 268.6,-514.01 442.4,-374.01 419,-234.0141040553969 C 395.6,-94.01 120.2,-24.01 114,115.9858959446031 C 107.8,255.99 341.6,349.18 388,465.9858959446031 C 434.4,582.79 354.4,653.2 346,700" stroke="rgba(255, 183, 3, 1)" stroke-width="2"></path><path d="M 286,-306.8368710605235 C 305.8,-236.84 403.6,-96.84 385,43.1631289394765 C 366.4,183.16 161.4,253.16 193,393.1631289394765 C 224.6,533.16 536.4,681.8 543,743.1631289394765 C 549.6,804.53 289.4,708.63 226,700" stroke="rgba(2, 48, 71, 1)" stroke-width="2"></path><path d="M 402,-339.17385219353355 C 335.8,-269.17 48.4,-129.17 71,10.826147806466457 C 93.6,150.83 471.4,220.83 515,360.82614780646645 C 558.6,500.83 269,642.99 289,710.8261478064665 C 309,778.66 549.8,702.17 615,700" stroke="rgba(251, 133, 0, 1)" stroke-width="2"></path><path d="M 205,-445.75430925675573 C 257.4,-375.75 479.4,-235.75 467,-95.7543092567557 C 454.6,44.25 154.6,114.25 143,254.2456907432443 C 131.4,394.25 412.8,515.09 409,604.2456907432443 C 405.2,693.4 181,680.85 124,700" stroke="rgba(255, 183, 3, 1)" stroke-width="2"></path><path d="M 514,-227.86991678606188 C 464.8,-157.87 287.4,-17.87 268,122.13008321393812 C 248.6,262.13 439.2,332.13 417,472.1300832139381 C 394.8,612.13 131,776.56 157,822.1300832139382 C 183,867.7 469,724.43 547,700" stroke="rgba(2, 48, 71, 1)" stroke-width="2"></path></g><defs><mask id="SvgjsMask1525"><rect width="700" height="700" fill="#ffffff"></rect></mask><linearGradient x1="0%" y1="0%" x2="100%" y2="100%" gradientUnits="userSpaceOnUse" id="SvgjsLinearGradient1526"><stop stop-color="#0e2a47" offset="0"></stop><stop stop-color="rgba(142, 202, 230, 1)" offset="1"></stop></linearGradient></defs></svg>